<?xml version="1.0" standalone="no"?><!DOCTYPE svg PUBLIC "-//W3C//DTD SVG 1.1//EN" "http://www.w3.org/Graphics/SVG/1.1/DTD/svg11.dtd"><svg t="1536824501991" class="icon" style="" viewBox="0 0 1024 1024" version="1.1" xmlns="http://www.w3.org/2000/svg" p-id="6546" xmlns:xlink="http://www.w3.org/1999/xlink" width="200" height="200"><defs><style type="text/css"></style></defs><path d="M172.8 902.4c0 6.4 6.4 12.8 19.2 12.8L320 915.2l0-153.6c0-44.8 38.4-83.2 89.6-83.2l198.4 0c51.2 0 89.6 38.4 89.6 83.2l0 153.6L832 915.2c6.4 0 19.2-6.4 19.2-12.8L851.2 524.8 172.8 524.8 172.8 902.4z" p-id="6547" fill="#999999"></path><path d="M531.2 96c-12.8-12.8-25.6-12.8-38.4 0l-384 384c0 0-6.4 6.4-6.4 6.4 0 0 0 0 0 0 0 0 6.4 0 6.4 0l800 0c6.4 0 6.4 0 6.4 0 0 0 0 0-6.4-6.4L531.2 96z" p-id="6548" fill="#999999"></path><path d="M940.8 454.4l-121.6-121.6L819.2 249.6c0-19.2-6.4-25.6-19.2-25.6s-19.2 6.4-19.2 25.6l0 38.4L556.8 70.4c-25.6-25.6-70.4-25.6-96 0l-384 384C57.6 480 64 499.2 70.4 505.6 76.8 512 83.2 524.8 115.2 524.8l19.2 0 0 377.6c0 25.6 25.6 51.2 57.6 51.2L320 953.6l0 0 38.4 0 0-192c0-25.6 25.6-44.8 51.2-44.8l198.4 0c32 0 51.2 19.2 51.2 44.8l0 192L704 953.6l0 0L832 953.6c32 0 57.6-25.6 57.6-51.2L889.6 524.8l19.2 0c32 0 38.4-12.8 44.8-25.6C960 499.2 966.4 480 940.8 454.4zM851.2 902.4c0 6.4-6.4 12.8-19.2 12.8L704 915.2l0-153.6c0-44.8-38.4-83.2-89.6-83.2L416 678.4c-51.2 0-89.6 38.4-89.6 83.2l0 153.6L192 915.2c-6.4 0-19.2-6.4-19.2-12.8L172.8 524.8l678.4 0L851.2 902.4zM908.8 486.4 115.2 486.4c-6.4 0-6.4 0-6.4 0 0 0 0 0 0 0 0 0 0 0 6.4-6.4l384-384c12.8-12.8 25.6-12.8 38.4 0l384 384c0 0 6.4 6.4 6.4 6.4C921.6 486.4 915.2 486.4 908.8 486.4z" p-id="6549" fill="#999999"></path></svg>