<?xml version="1.0" standalone="no"?><!DOCTYPE svg PUBLIC "-//W3C//DTD SVG 1.1//EN" "http://www.w3.org/Graphics/SVG/1.1/DTD/svg11.dtd"><svg t="1536822079724" class="icon" style="" viewBox="0 0 1024 1024" version="1.1" xmlns="http://www.w3.org/2000/svg" p-id="5697" xmlns:xlink="http://www.w3.org/1999/xlink" width="200" height="200"><defs><style type="text/css"></style></defs><path d="M294.42422371 273.6936843H474.76613774c24.98390215 0 40.91604482 20.64115032 34.75509284 45.61197203l-83.97730358 359.84667148c-5.79469542 25.33707753-31.1448534 45.61197203-56.11567511 45.61197202H189.07325669C164.10243572 724.76429982 148.17029305 704.17547125 154.29200299 679.15232781l83.99038402-359.84667148c5.79469542-24.97082171 30.77859757-45.61197203 56.1156751-45.61197203" fill="#D43634" p-id="5698"></path><path d="M459.50110456 273.6936843h207.07861342c24.97082171 0 13.74768668 20.64115032 7.96607169 45.61197203l-83.99038475 359.84667148c-5.79469542 25.33707753-3.92417281 45.61197203-29.32665395 45.61197202H354.1632187c-25.35015797 0-40.91604482-20.62806989-34.75509357-45.61197202l83.99038475-359.84667148c5.78161498-24.97082171 30.76551713-45.61197203 56.10259467-45.61197203" fill="#034582" p-id="5699"></path><path d="M658.24739046 273.6936843h179.92333573c25.33707753 0 40.90296438 20.64115032 34.75509284 45.61197203l-83.99038402 359.84667148c-5.79469542 25.33707753-31.13177296 45.61197203-56.11567511 45.61197202H552.9095046c-25.35015797 0-40.91604482-20.62806989-34.75509285-45.61197202l83.9773036-359.84667148c5.79469542-24.97082171 31.13177296-45.61197203 56.11567511-45.61197203" fill="#107C84" p-id="5700"></path><path d="M628.20130527 600.23720726h17.00475l5.06218305-16.29839922h-17.00475001z m13.76076711-45.25879664l-5.79469614 19.18920671s6.54028825-3.25706333 9.77119142-4.34275181c3.62331988-0.71943194 8.68550292-1.45194433 8.68550292-1.45194361l3.9895757-13.39451129z m8.3192471-27.46921106L644.48662333 545.90049028a59.25501378 59.25501378 0 0 1 9.78427185-3.62331988 37.03111333 37.03111333 0 0 1 8.68550293-1.07260734l3.92417279-13.407591z m37.65898077 0l-22.09309466 72.767249h5.79469543l-4.70900765 14.83337446h-5.79469543l-1.43886317 4.70900766h-20.99432644l1.43886389-4.70900766h-42.3549087l4.34275183-13.74768668h4.35583225l22.43318961-73.85293678 4.3427511-14.84645489h21.36058227l-2.17137555 7.59981514a43.87225522 43.87225522 0 0 1 11.22313502-5.42843959c5.42843959-1.45194433 36.20703716-1.80511972 36.20703716-1.80511972l-4.70900837 14.83337447z m0 0" fill="#FFFFFF" p-id="5701"></path><path d="M697.34523511 512.62350263h22.81252587l0.3531754 8.33232753c0 1.43886317 1.08568778 2.17137554 3.62331987 2.17137554h4.70900766l-4.34275111 14.11394253h-12.30882279c-10.46446178 0.71943194-14.8464549-3.92417281-14.48019907-9.05175875z m2.89080749 66.25312237h-21.71375765l3.62331988-12.30882281h24.61764558l3.61023945-11.22313502H685.75584353l4.35583226-14.1139425h68.01900005l-4.3427511 14.1139425H731.01464018l-3.62331988 11.22313502h22.81252587l-3.62331988 12.3088228H721.98904158l-4.3427511 5.06218304h10.13744724l2.53763137 15.56588684a21.19053443 21.19053443 0 0 0 0.71943196 3.25706333c0.36625583 0.73251238 3.62331988 0.73251238 5.42843959 0.73251238h2.8908075l-4.69592721 15.91906222h-7.61289559a36.62561546 36.62561546 0 0 1-5.42843959-0.35317537 19.16304512 19.16304512 0 0 1-5.4284396-2.17137627 7.29896223 7.29896223 0 0 1-3.9241728-5.44151931l-2.5376321-15.56588686-11.28853793 15.56588685c-3.62331988 4.70900765-8.3192471 8.69858334-16.65157461 8.69858335h-15.94522312l3.98957571-13.76076712h6.14787154a7.67829848 7.67829848 0 0 0 4.34275182-1.4519436 5.87317876 5.87317876 0 0 0 3.25706332-2.89080748z m-237.47787471-34.00950003h57.55453899l-4.34275183 13.76076713h-22.79944543l-3.62331988 11.57631041h23.54503825l-4.31659022 14.10086207h-23.54503826l-5.79469615 18.82295017c-0.71943194 2.17137554 5.42843959 2.5376321 7.96607169 2.53763211l11.58939086-1.45194433-4.70900764 15.56588684H467.83343208a41.5569927 41.5569927 0 0 1-6.16095199-0.71943194 6.78881943 6.78881943 0 0 1-4.34275109-3.25706406c-1.08568778-1.45194433-2.5376321-2.90388792-1.45194433-6.16095125l7.61289559-25.33707754h-13.0805765l4.34275111-14.48019907h13.08057721l3.62331987-11.58939083h-13.0805772z m38.74466925-24.6176456h23.54503825l-4.35583226 14.48019836h-32.23054116l-3.62331988 2.90388793c-1.43886317 1.43886317-2.17137554 0.71943194-3.92417352 1.80511971a21.47830764 21.47830764 0 0 1-10.46446105 2.8908075h-10.13744725l4.34275182-13.74768598h3.27014377a17.47565078 17.47565078 0 0 0 5.4284396-0.73251237 16.03678761 16.03678761 0 0 0 3.62331987-4.34275182l5.78161499-10.85687846h23.54503826z m45.24571548 23.54503826a37.22732204 37.22732204 0 0 1 17.37100584-7.59981515c2.5376321-0.36625583 18.10351823-0.36625583 18.10351895-0.36625655l2.53763209-7.96607096h-33.30314923z m31.13177296 6.16095198h-32.93689268l-2.17137555 6.54028825h28.59414085a13.00209315 13.00209315 0 0 1 4.34275183 0z m-42.72116382-37.29272494h19.92171839l-2.90388794 10.13744724s6.54028825-5.06218304 10.85687847-6.88038392 14.48019835-3.25706333 14.48019909-3.25706332h32.58371728l-10.8568792 36.92646838c-1.80511972 6.14787082-3.92417281 10.46446178-5.42843959 12.3088228a12.49195107 12.49195107 0 0 1-5.42843888 5.07526421 23.54503825 23.54503825 0 0 1-7.59981586 2.52455094c-2.17137554 0-5.44152003 0.36625583-10.13744652 0.36625655h-31.49802952l-8.68550291 28.96039742c-0.73251238 2.8908075-1.08568778 4.34275182-0.73251239 5.06218305a3.23090246 3.23090246 0 0 0 2.90388793 1.45194432l13.74768668-1.45194432-4.69592721 15.93214266h-15.57896728a84.65749422 84.65749422 0 0 1-10.8568792-0.36625582c-2.52455167 0-4.70900765 0-6.54028823-1.4388639-1.45194433-1.45194433-3.62331988-2.90388792-3.62331988-4.70900766a36.9918713 36.9918713 0 0 1 1.81820014-7.96607096z m0 0" fill="#FFFFFF" p-id="5702"></path><path d="M593.44621242 572.06164471l-1.80511971 8.6855029c-0.73251238 2.8908075-1.45194433 4.70900765-3.62331988 6.54028825a14.51944038 14.51944038 0 0 1-10.85687847 3.98957571l-11.22313502 0.35317611v10.13744725c0 2.90388792 0.71943194 2.5376321 1.08568777 2.90388793a2.76000168 2.76000168 0 0 0 1.45194361 0.71943122h3.61023943l10.46446177-0.71943122-4.34275182 14.48019834h-12.26958076c-8.68550292 0-14.8464549 0-17.00475001-1.81820015-2.17137554-1.43886317-2.17137554-2.8908075-2.17137627-5.79469542l0.71943194-39.08476424h19.55546255l-0.36625655 7.95299126h4.70900837c1.45194433 0 2.5376321 0 3.25706332-0.71943194a3.37478871 3.37478871 0 0 0 1.45194433-2.17137554l1.805119-6.14787155zM315.78480526 388.93356739c-0.73251238 3.25706333-13.08057721 60.82468276-13.39451058 60.82468276-2.5376321 11.57631042-4.70900765 19.90863794-11.22313501 25.33707752a19.62086545 19.62086545 0 0 1-13.39451057 4.70900765c-8.33232754 0-13.08057721-3.98957571-13.76076712-11.9556474v-2.52455166l2.53763211-15.56588611s13.08057721-52.50543566 15.56588683-59.37273916c0-0.36625583 0-0.73251238 0.36625582-0.73251237-25.70333337 0.36625583-30.08532722 0-30.41234174-0.35317541 0 0.35317539-0.71943194 3.61023944-0.71943122 3.61023944L238.00769496 452.16507643l-1.08568778 5.07526349-2.17137555 16.28531806a26.74977983 26.74977983 0 0 0 2.8908075 12.30882351c6.14787082 10.85687919 23.54503825 12.30882279 33.30314851 12.3088228 12.67507934 0 24.61764559-2.8908075 32.58371729-7.59981515 14.11394252-8.33232754 17.73726239-21.36058227 20.92892354-32.58371729l1.4519436-5.79469542s13.39451057-54.66373078 15.93214267-61.4787118c0-0.35317539 0-0.71943194 0.35317539-0.71943193-19.54238211-0.36625583-24.98390215-0.71943194-26.42276531-1.08568779m74.559289 108.56878831c-9.05175947 0-12.30882279 0-22.79944615 0.35317612l-0.36625583-0.71943195c1.08568778-3.92417281 1.80511972-7.9660717 2.8908075-11.94256697l1.45194433-5.42843959c1.80511972-8.69858334 3.92417281-18.46977477 3.9241728-21.72683811 0.36625583-1.80511972 0.73251238-6.54028825-4.34275182-6.54028823-2.17137554 0-4.34275182 1.08568778-6.88038321 2.17137555-1.43886317 4.70900765-3.92417281 17.37100583-5.06218304 23.16570198-2.5376321 12.30882279-2.8908075 13.76076712-3.92417353 19.90863795l-0.71943122 0.73251238c-9.4180153 0-12.66199819 0-23.16570198 0.35317539l-0.36625655-0.71943123c1.81820016-7.23355931 3.62331988-14.48019835 5.42843959-22.08001421 4.34275182-19.90863794 5.44152003-27.46921178 6.88038392-37.64590033l0.73251238-0.73251239c10.46446178-1.45194433 13.08057721-1.80511972 24.25138904-3.92417279l1.08568778 1.08568777-1.805119 6.14787082c1.80511972-1.08568778 3.61023944-2.17137554 5.78161499-3.25706332a36.62561546 36.62561546 0 0 1 14.49327878-3.24398362c5.0752642 0 10.46446178 1.45194433 12.67507935 7.24663976 2.17137554 5.06218304 0.71943194 11.57631042-2.17137555 23.88513394l-1.45194433 6.16095125c-2.8908075 13.74768668-3.25706333 16.28531807-5.06218303 25.70333408z m36.9264684-12.67507863h-12.3088228c-3.25706333 0-6.88038321 0.36625583-11.94256697 0.36625583l-0.73251238-0.73251237a89.92896641 89.92896641 0 0 1 2.90388866-9.03867833 44.5393647 44.5393647 0 0 0 2.53763138-9.05175946c1.43886317-6.88038321 2.52455167-11.58939085 3.25706405-15.93214267 0.71943194-3.92417281 1.08568778-7.59981515 1.8051197-11.58939086l0.71943123-0.71943195c5.42843959-0.71943194 9.05175947-1.45194433 12.30882353-1.80511971 3.62331988-0.36625583 7.24663975-1.09876822 12.67507862-2.17137554l0.36625656 0.35317537v0.36625584l-3.25706406 13.08057721c-1.09876822 4.34275182-2.17137554 8.68550292-2.90388792 13.08057721-2.17137554 9.05175947-2.8908075 12.67507934-3.25706405 14.8464549s-0.71943194 3.62331988-1.4519436 8.33232752z m57.55453827-31.8512049c-0.35317539 2.17137554-2.52455167 11.22313502-5.42843887 14.83337446-1.80511972 2.5376321-4.34275182 4.34275182-6.88038392 4.34275108-0.71943194 0-5.06218304 0-5.42843887-6.54028822a53.01557846 53.01557846 0 0 1 1.4519436-10.13744725c2.5376321-10.46446178 5.0752642-19.54238211 12.30882279-19.54238211 6.16095197-0.36625583 6.54028825 6.14787082 3.92417353 17.00475m23.54503825 0.71943195c3.25706333-14.11394252 0.73251238-20.2748945-2.52455167-24.25138976-4.70900765-6.16095197-13.08057721-7.9660717-21.7268381-7.96607098-5.06218304 0-17.37100583 0.36625583-27.15527768 9.40493488-6.86730277 6.54028825-10.13744724 15.21271072-11.94256696 23.54503824s-4.34275182 23.89821437 9.77119141 29.6929098a42.85197035 42.85197035 0 0 0 14.84645489 2.52455093c10.46446178 0 20.92892281-2.8908075 28.96039742-11.21005459 6.16095197-7.24663975 9.05175947-17.38408701 9.7711907-21.72683808m235.672755-31.49802952c-11.22313502 2.17137554-14.48019835 2.5376321-25.33707753 3.92417353l-0.71943195 0.71943194c0 0.71943194-0.36625583 1.80511972-0.36625655 2.53763138a14.57176284 14.57176284 0 0 0-7.96607098-6.54028824c-4.70900765-1.80511972-16.29839922 0.73251238-26.06958992 9.4180153-6.86730277 6.54028825-10.13744724 15.21271072-11.94256696 23.54503824s-4.34275182 23.89821437 9.77119141 29.32665397a26.86750521 26.86750521 0 0 0 12.67507864 2.17137556 22.52475337 22.52475337 0 0 0 12.00796986-5.41535844c-0.35317539 1.08568778-0.71943194 2.52455167-1.08568778 3.61023871l0.73251239 0.73251239c10.13744724-0.36625583 13.38143013-0.36625583 24.25138975-0.36625584l1.08568779-0.71943194c1.45194433-9.4180153 3.25706333-18.46977477 7.23355859-36.62561547 1.81820016-8.68550292 3.98957571-17.00475001 6.16095198-25.70333335z m-35.84078133 46.69765979a12.59659528 12.59659528 0 0 1-8.68550292 4.35583227c-0.71943194 0-5.06218304 0-5.42843959-6.54028824a51.99529359 51.99529359 0 0 1 1.45194432-10.13744725c2.52455167-10.13744724 5.06218304-19.17612555 12.30882279-19.17612555 4.69592722 0 6.86730277 4.34275182 6.54028824 11.5763104a46.81538517 46.81538517 0 0 1-1.4519436 5.79469543c-0.71943194 3.25706333-1.45194433 6.14787082-2.17137627 9.4180153a29.52286195 29.52286195 0 0 1-2.53763139 4.69592722M570.25434957 497.42387235c-9.05175947 0-12.30882279 0-22.8125266 0.35317538l-0.35317539-0.71943121c0.71943194-3.92417281 1.80511972-7.9660717 2.89080749-11.94256697l1.08568777-5.42843959c1.81820016-8.69858334 3.92417281-18.46977477 3.92417353-21.72683811 0-1.80511972 0.71943194-6.54028825-4.34275183-6.54028896-2.1844567 0-4.35583226 1.08568778-6.88038318 2.17137628-1.45194433 4.70900765-3.98957571 17.37100583-5.07526422 23.16570125-2.5376321 12.30882279-2.8908075 13.76076712-3.92417281 19.90863868l-0.73251238 0.73251238c-9.40493485 0-12.66199819 0-23.16570198 0.35317539l-0.36625583-0.71943195c1.81820016-7.23355931 3.62331988-14.48019835 5.44152004-22.08001349 4.34275182-19.90863794 5.42843959-27.46921178 6.8803832-37.64590106l0.71943195-0.73251165c10.46446178-1.45194433 13.08057721-1.80511972 24.25138975-3.92417353l0.71943123 1.08568777-1.80511971 6.14787155c1.80511972-1.08568778 3.62331988-2.17137554 5.79469613-3.25706405a36.62561546 36.62561546 0 0 1 14.51944038-3.21782201c5.06218304 0 10.46446178 1.45194433 12.66199819 7.24663975 2.17137554 5.06218304 0.73251238 11.57631042-2.17137554 23.88513393l-1.43886389 6.16095126c-2.90388792 13.74768668-3.25706333 16.28531807-5.07526349 25.70333408 0.73251238 0-0.71943194 1.08568778-0.71943193 1.08568779z m0 0" fill="#FFFFFF" p-id="5703"></path><path d="M648.84245559 388.81584201h-7.61289558c-19.54238211 0.36625583-27.46921178 0-30.76551714-0.36625583-0.36625583 1.45194433-0.73251238 3.98957571-0.73251238 3.98957571l-6.86730276 32.57063685-17.7372624 72.41407361c17.00475001-0.36625583 24.25138977-0.36625583 27.14219726 0 0.73251238-3.25706333 4.70900765-22.44627004 4.70900765-22.44627005s3.25706333-14.12702296 3.62331988-14.84645489a11.01384587 11.01384587 0 0 1 2.17137554-2.17137556h1.45194434c14.83337447 0 31.48494836 0 44.47396179-9.77119142 8.68550292-6.54028825 14.83337447-16.29839922 17.73726165-28.24096546a42.77348628 42.77348628 0 0 0 1.08568851-9.77119069 19.80399372 19.80399372 0 0 0-3.62331988-12.3088228c-6.54028825-8.68550292-19.54238211-9.05175947-35.10826895-9.05175947m9.77119142 33.66940507a23.00873458 23.00873458 0 0 1-12.3088228 16.28531807c-5.0752642 2.5376321-11.22313502 2.5376321-17.38408701 2.53763209h-3.92417279l0.36625583-1.80511971s7.59981515-32.58371728 7.59981514-32.23054118v-3.25706406l2.8908075 0.36625656 15.93214267 1.45194361c6.14787082 2.8908075 8.68550292 9.05175947 6.8803832 16.65157462m-221.55881177 19.18920599c6.16095197-4.34275182 6.88038321-9.78427185 1.81820016-13.08057649-5.0752642-2.8908075-14.12702296-2.17137554-19.92171838 2.17137554-6.14787082 3.98957571-6.86730277 9.78427185-1.80511971 13.08057723 5.0752642 2.8908075 14.12702296 2.17137554 19.90863793-2.17137628m382.29294151-19.90863795l-0.73251238-1.09876821c-11.21005459 2.17137554-13.08057721 2.5376321-23.54503826 3.98957571l-0.71943193 0.71943195v0.36625583c-7.59981515 17.73726239-7.23355931 13.76076712-13.76076713 27.87470964v-1.80511973l-1.43886317-30.08532649-1.08568777-1.09876893c-11.58939085 2.17137554-11.9556474 2.5376321-22.81252659 3.98957642l-0.71943123 0.71943123v1.08568849c1.45194433 6.88038321 1.08568778 5.42843959 2.52455093 16.29839851 0.73251238 5.42843959 1.45194433 10.85687919 2.18445673 15.91906223 1.08568778 8.69858334 1.80511972 13.39451057 2.89080749 26.78902114-7.24663975 11.9556474-9.05175947 16.65157462-15.93214268 27.15527841l-5.06218376 7.96607098c-0.73251238 0.71943194-1.08568778 1.45194433-1.81820016 1.45194432a8.20152172 8.20152172 0 0 1-3.25706332 0.35317541h-2.8908075l-3.98957642 13.76076711 14.12702366 0.36625584c8.3192471 0 13.39451057-3.98957571 16.28531807-9.05175947l8.68550292-15.21271074 1.09876894-1.08568777c5.06218304-11.94256697 49.95472313-89.40574317 49.95472312-89.40574318" fill="#FFFFFF" p-id="5704"></path></svg>